<?xml version="1.0" standalone="no"?><!DOCTYPE svg PUBLIC "-//W3C//DTD SVG 1.1//EN" "http://www.w3.org/Graphics/SVG/1.1/DTD/svg11.dtd"><svg t="1598854377121" class="icon" viewBox="0 0 1041 1024" version="1.1" xmlns="http://www.w3.org/2000/svg" p-id="2130" xmlns:xlink="http://www.w3.org/1999/xlink" width="203.3203125" height="200"><defs><style type="text/css"></style></defs><path d="M1037.869826 969.770806 1039.702481 969.774503 1039.702481 1023.383878 54.228886 1021.338046 54.225189 1021.838645 0.616122 1021.838645 2.466028 754.745217 2.466028 711.929988 2.76269 711.929988 2.769468 710.938956 56.378843 710.938956 56.371757 711.929988 173.13177 711.929988 173.13177 715.627027 173.133618 715.627027 173.13177 715.803546 173.13177 785.248484 172.347447 785.248484 171.608409 850.698796 866.552227 852.575195 868.113171 711.006114 868.425237 711.006114 868.425237 705.460709 986.091257 705.460709 986.099883 704.228774 1039.70895 704.228774 1037.869826 969.770806ZM920.975191 778.779205 919.569201 906.316113 917.095472 906.316113 917.095472 906.320734 915.329359 906.316113 865.959826 906.316113 865.961366 906.182722 171.003069 904.306323 170.980581 906.316113 117.371206 906.316113 118.73838 785.248484 55.864073 785.248484 54.600099 967.729595 984.261375 969.659596 985.583573 778.779205 920.975191 778.779205ZM720.320951 823.756098 720.247941 823.756098 647.002455 823.756098 396.475928 823.756098 323.157432 823.756098 323.157432 750.437602 323.157432 465.481263 149.41108 465.481263 149.41108 393.315223 149.41108 393.315223 149.41108 393.315223 149.41108 392.162767 544.473008 0.616122 893.868912 392.162767 893.868912 392.162767 893.994292 392.162767 893.994292 465.481263 720.320951 465.481263 720.320951 823.756098ZM795.603644 392.162767 540.308949 106.069991 256.917251 392.162767 396.475928 392.162767 396.475928 465.481263 396.475928 465.481263 396.475928 750.437602 647.002455 750.437602 647.002455 465.481263 646.929445 465.481263 646.929445 392.162767 795.603644 392.162767Z" p-id="2131"></path></svg>