<?xml version="1.0" standalone="no"?><!DOCTYPE svg PUBLIC "-//W3C//DTD SVG 1.1//EN" "http://www.w3.org/Graphics/SVG/1.1/DTD/svg11.dtd"><svg t="1611752366759" class="icon" viewBox="0 0 1024 1024" version="1.1" xmlns="http://www.w3.org/2000/svg" p-id="3837" xmlns:xlink="http://www.w3.org/1999/xlink" width="200" height="200"><defs><style type="text/css"></style></defs><path d="M510.6 404.1c55.9 0 101.3-44.5 101.3-99.2s-45.5-99.2-101.3-99.2c-55.9 0-101.3 44.5-101.3 99.2s45.5 99.2 101.3 99.2z m259.9 0c55.9 0 101.3-44.5 101.3-99.2s-45.5-99.2-101.3-99.2c-55.9 0-101.3 44.5-101.3 99.2-0.1 54.7 45.4 99.2 101.3 99.2z m-516.2 0c55.9 0 101.3-44.5 101.3-99.2s-45.4-99.2-101.3-99.2S153 250.2 153 304.9c-0.1 54.7 45.4 99.2 101.3 99.2z m444.9 364.5v99.3H318.7v-99.3h0.1c0.8-143.3 85.6-360.7 190.1-360.7 104.6 0 189.4 217.4 190.3 360.7zM378.1 467.4l-4.9 7.2c-32.3 47.2-84.9 219.1-84.9 294 0 5-0.4 10.1-0.2 15.1V868H65.7v-99.3h0.1C66.6 625.4 151.4 408 256 408c42.5 0 82.6 18.4 116.1 53.2l6 6.2zM959 768.6v99.3H736.5v-96.6c0-0.9-0.1-1.8-0.1-2.7 0-74.9-52.7-246.8-84.9-294l-4.9-7.2 6-6.3c33.5-34.8 73.7-53.2 116.2-53.2 104.5 0 189.3 217.4 190.2 360.7z" p-id="3838"></path></svg>